<?xml version="1.0" standalone="no"?>
<!DOCTYPE svg PUBLIC "-//W3C//DTD SVG 20010904//EN"
 "http://www.w3.org/TR/2001/REC-SVG-20010904/DTD/svg10.dtd">
<svg version="1.0" xmlns="http://www.w3.org/2000/svg"
 width="513.000000pt" height="513.000000pt" viewBox="0 0 513.000000 513.000000"
 preserveAspectRatio="xMidYMid meet">
<metadata>
Created by potrace 1.14, written by Peter Selinger 2001-2017
</metadata>
<g transform="translate(0.000000,513.000000) scale(0.100000,-0.100000)"
fill="#000000" stroke="none">
<path d="M2270 5098 c-230 -36 -347 -61 -460 -100 -194 -68 -280 -110 -339
-166 -28 -27 -56 -43 -81 -47 -41 -7 -147 -65 -207 -114 -21 -17 -72 -57 -113
-90 -234 -185 -504 -511 -668 -808 -106 -192 -206 -473 -236 -663 -3 -19 -8
-48 -11 -65 -26 -154 -26 -528 -1 -675 3 -14 7 -45 10 -70 23 -179 102 -488
147 -571 6 -13 37 -55 67 -94 64 -83 80 -114 127 -260 20 -60 46 -126 59 -145
14 -19 43 -66 66 -105 49 -80 159 -225 192 -252 13 -10 41 -41 63 -69 45 -57
88 -95 158 -143 29 -20 55 -47 63 -66 7 -18 27 -43 44 -55 33 -24 131 -61 142
-54 8 5 48 -45 48 -61 0 -26 238 -167 385 -229 49 -20 104 -48 121 -61 33 -25
53 -32 119 -40 22 -2 78 -14 125 -25 47 -12 114 -21 150 -21 53 1 75 -4 117
-26 50 -27 53 -27 110 -14 86 19 95 20 136 3 37 -14 46 -14 227 4 316 31 703
164 968 331 29 18 54 33 57 33 20 0 265 190 359 279 164 156 304 319 415 486
90 134 189 336 196 400 3 27 14 58 24 70 27 30 27 31 60 159 17 65 33 151 35
190 1 39 8 81 14 92 14 27 21 84 28 239 l6 130 -31 29 c-35 34 -39 57 -12 83
10 10 22 26 28 36 19 36 -35 362 -92 562 -15 50 -31 107 -37 128 -6 21 -28 56
-49 78 -36 37 -39 45 -38 93 2 54 -32 138 -66 166 -21 17 -45 64 -45 87 0 50
-163 305 -304 477 -111 135 -327 348 -410 405 -12 8 -23 17 -26 21 -12 14
-152 112 -226 158 -98 61 -174 100 -274 140 -42 16 -121 51 -177 76 -56 26
-139 55 -185 65 -46 10 -95 24 -108 31 -98 52 -448 72 -670 38z"/>
</g>
</svg>
